<?xml version="1.0" encoding="utf-8"?>
<!-- Generator: Adobe Illustrator 18.0.0, SVG Export Plug-In . SVG Version: 6.00 Build 0)  -->
<!DOCTYPE svg PUBLIC "-//W3C//DTD SVG 1.1//EN" "http://www.w3.org/Graphics/SVG/1.1/DTD/svg11.dtd">
<svg version="1.1" id="Layer_1" xmlns="http://www.w3.org/2000/svg" xmlns:xlink="http://www.w3.org/1999/xlink" x="0px" y="0px"
	 viewBox="0 0 560 560" enable-background="new 0 0 560 560" xml:space="preserve">
<path d="M281.5,21.3c-100.3-0.2-194.7,59.3-238,153.4l121.8,0.3v13.3c-37.5-4.5-34.2,15-28.9,35.6l80,200.4l58.8-137.8l-27-64.6
	c-9.8-17.3-10-36.5-50.1-34.7l0.6-12.3l178.7,0.4v13.8c-20.9,1.2-46.1-5.3-32.8,37.6l72.3,189.8l39.5-110.8
	c12.9-46.5,0.8-91.1-14.6-134.9c-8.5-29.4-4.6-53.9,33.8-63.6C416.9,47.7,347.9,21.4,281.5,21.3L281.5,21.3z M524.5,196.5
	L408.7,498.4c32-27.7,64.8-37.8,104.9-114.4C540.3,320.2,537.5,261.2,524.5,196.5L524.5,196.5z M31.2,201.4
	c-11.3,89.1-10.3,115.2,17.7,188c36.5,69.7,64.8,84.4,104.9,111.7L31.2,201.4L31.2,201.4z M286,314.5l-85.8,207.1
	c60.3,17.2,114.2,15,163.5-4.1L286,314.5L286,314.5z"/>
</svg>
